<mxfile host="drawio-plugin" modified="2023-02-13T12:24:03.724Z" agent="5.0 (X11; Linux x86_64) AppleWebKit/537.36 (KHTML, like Gecko) Chrome/97.0.4692.45 Safari/537.36" etag="yWfQkelBZaD-ynU2u0FW" version="20.5.3" type="embed" pages="3"><diagram id="S2yOobUWY36Dr2tiQ4HC" name="Q1"><mxGraphModel dx="1692" dy="723" grid="1" gridSize="10" guides="1" tooltips="1" connect="1" arrows="1" fold="1" page="1" pageScale="1" pageWidth="850" pageHeight="1100" background="none" math="0" shadow="0"><root><mxCell id="0"/><mxCell id="1" parent="0"/><mxCell id="23" value="" style="rounded=0;whiteSpace=wrap;html=1;strokeWidth=1;aspect=fixed;" parent="1" vertex="1"><mxGeometry x="-150" y="21.88" width="654.44" height="368.12" as="geometry"/></mxCell><mxCell id="4" value="" style="edgeStyle=none;html=1;exitX=1;exitY=0.5;exitDx=0;exitDy=0;" parent="1" source="16" target="3" edge="1"><mxGeometry relative="1" as="geometry"><mxPoint x="80" y="79.99999999999994" as="sourcePoint"/><Array as="points"><mxPoint x="140" y="80"/></Array></mxGeometry></mxCell><mxCell id="5" value="listen()" style="edgeLabel;html=1;align=center;verticalAlign=middle;resizable=0;points=[];" parent="4" vertex="1" connectable="0"><mxGeometry x="0.2649" y="1" relative="1" as="geometry"><mxPoint x="-10" y="1" as="offset"/></mxGeometry></mxCell><mxCell id="3" value="écoute" style="rounded=1;whiteSpace=wrap;html=1;" parent="1" vertex="1"><mxGeometry x="190" y="50" width="120" height="60" as="geometry"/></mxCell><mxCell id="6" value="connectée" style="rounded=1;whiteSpace=wrap;html=1;strokeWidth=1;" parent="1" vertex="1"><mxGeometry x="40" y="170" width="120" height="60" as="geometry"/></mxCell><mxCell id="7" value="fermée" style="rounded=1;whiteSpace=wrap;html=1;strokeWidth=1;" parent="1" vertex="1"><mxGeometry x="240" y="260" width="120" height="60" as="geometry"/></mxCell><mxCell id="8" value="" style="endArrow=classic;html=1;exitX=0.5;exitY=1;exitDx=0;exitDy=0;" parent="1" source="16" edge="1"><mxGeometry width="50" height="50" relative="1" as="geometry"><mxPoint x="80" y="79.99999999999994" as="sourcePoint"/><mxPoint x="100" y="170" as="targetPoint"/></mxGeometry></mxCell><mxCell id="9" value="connect()" style="edgeLabel;html=1;align=center;verticalAlign=middle;resizable=0;points=[];" parent="8" vertex="1" connectable="0"><mxGeometry x="0.2882" y="-1" relative="1" as="geometry"><mxPoint as="offset"/></mxGeometry></mxCell><mxCell id="10" value="" style="endArrow=classic;html=1;exitX=0.5;exitY=1;exitDx=0;exitDy=0;entryX=1;entryY=0.5;entryDx=0;entryDy=0;" parent="1" source="3" target="6" edge="1"><mxGeometry width="50" height="50" relative="1" as="geometry"><mxPoint x="180" y="240" as="sourcePoint"/><mxPoint x="230" y="190" as="targetPoint"/></mxGeometry></mxCell><mxCell id="11" value="accept()" style="edgeLabel;html=1;align=center;verticalAlign=middle;resizable=0;points=[];" parent="10" vertex="1" connectable="0"><mxGeometry x="-0.1907" y="1" relative="1" as="geometry"><mxPoint as="offset"/></mxGeometry></mxCell><mxCell id="12" value="" style="endArrow=classic;html=1;exitX=0.5;exitY=1;exitDx=0;exitDy=0;entryX=0;entryY=0.5;entryDx=0;entryDy=0;" parent="1" source="6" target="7" edge="1"><mxGeometry width="50" height="50" relative="1" as="geometry"><mxPoint x="180" y="240" as="sourcePoint"/><mxPoint x="230" y="190" as="targetPoint"/></mxGeometry></mxCell><mxCell id="15" value="close()" style="edgeLabel;html=1;align=center;verticalAlign=middle;resizable=0;points=[];" parent="12" vertex="1" connectable="0"><mxGeometry x="-0.1764" y="-4" relative="1" as="geometry"><mxPoint x="4" as="offset"/></mxGeometry></mxCell><mxCell id="13" value="" style="endArrow=classic;html=1;exitX=0.75;exitY=1;exitDx=0;exitDy=0;entryX=0.5;entryY=0;entryDx=0;entryDy=0;" parent="1" source="3" target="7" edge="1"><mxGeometry width="50" height="50" relative="1" as="geometry"><mxPoint x="180" y="240" as="sourcePoint"/><mxPoint x="230" y="190" as="targetPoint"/></mxGeometry></mxCell><mxCell id="14" value="close()" style="edgeLabel;html=1;align=center;verticalAlign=middle;resizable=0;points=[];" parent="13" vertex="1" connectable="0"><mxGeometry x="-0.1479" y="-1" relative="1" as="geometry"><mxPoint as="offset"/></mxGeometry></mxCell><mxCell id="16" value="Initial" style="rounded=1;whiteSpace=wrap;html=1;strokeWidth=1;" parent="1" vertex="1"><mxGeometry x="-30" y="50" width="120" height="60" as="geometry"/></mxCell><mxCell id="18" value="" style="edgeStyle=none;html=1;" parent="1" source="17" target="16" edge="1"><mxGeometry relative="1" as="geometry"/></mxCell><mxCell id="17" value="" style="ellipse;fillColor=strokeColor;strokeWidth=1;" parent="1" vertex="1"><mxGeometry x="-130" y="65" width="30" height="30" as="geometry"/></mxCell><mxCell id="20" value="" style="edgeStyle=none;html=1;" parent="1" source="19" target="7" edge="1"><mxGeometry relative="1" as="geometry"/></mxCell><mxCell id="19" value="" style="ellipse;html=1;shape=endState;fillColor=strokeColor;strokeWidth=1;" parent="1" vertex="1"><mxGeometry x="410" y="340" width="30" height="30" as="geometry"/></mxCell><mxCell id="21" value="" style="endArrow=classic;html=1;entryX=0;entryY=0.5;entryDx=0;entryDy=0;" parent="1" target="6" edge="1"><mxGeometry width="50" height="50" relative="1" as="geometry"><mxPoint x="70" y="230" as="sourcePoint"/><mxPoint x="120" y="220" as="targetPoint"/><Array as="points"><mxPoint y="230"/><mxPoint y="200"/></Array></mxGeometry></mxCell><mxCell id="22" value="Read()&lt;br&gt;&amp;lt;&amp;lt;internal&amp;gt;&amp;gt;" style="text;html=1;strokeColor=none;fillColor=none;align=center;verticalAlign=middle;whiteSpace=wrap;rounded=0;strokeWidth=1;" parent="1" vertex="1"><mxGeometry x="-70" y="200" width="60" height="30" as="geometry"/></mxCell></root></mxGraphModel></diagram><diagram id="ucGqIOGwTSwpNWjAd6n9" name="Q2"><mxGraphModel dx="842" dy="723" grid="1" gridSize="10" guides="1" tooltips="1" connect="1" arrows="1" fold="1" page="1" pageScale="1" pageWidth="850" pageHeight="1100" math="0" shadow="0"><root><mxCell id="0"/><mxCell id="1" parent="0"/><mxCell id="eYjtONqWW8NmpuAYy6ms-22" value="" style="rounded=0;whiteSpace=wrap;html=1;strokeWidth=1;" parent="1" vertex="1"><mxGeometry x="195" y="89" width="445" height="240" as="geometry"/></mxCell><mxCell id="S-D1iu6NnvnevHChGyWz-19" value="" style="edgeStyle=none;html=1;endArrow=block;endFill=1;endSize=6;entryX=0;entryY=0.5;entryDx=0;entryDy=0;" parent="1" source="eYjtONqWW8NmpuAYy6ms-10" target="S-D1iu6NnvnevHChGyWz-12" edge="1"><mxGeometry relative="1" as="geometry"/></mxCell><mxCell id="eYjtONqWW8NmpuAYy6ms-10" value="Socket" style="swimlane;fontStyle=0;align=center;verticalAlign=top;childLayout=stackLayout;horizontal=1;startSize=30;horizontalStack=0;resizeParent=1;resizeParentMax=0;resizeLast=0;collapsible=0;marginBottom=0;html=1;strokeWidth=1;" parent="1" vertex="1"><mxGeometry x="230" y="130" width="140" height="158" as="geometry"/></mxCell><mxCell id="eYjtONqWW8NmpuAYy6ms-12" value="state : String" style="text;html=1;strokeColor=none;fillColor=none;align=left;verticalAlign=middle;spacingLeft=4;spacingRight=4;overflow=hidden;rotatable=0;points=[[0,0.5],[1,0.5]];portConstraint=eastwest;strokeWidth=1;" parent="eYjtONqWW8NmpuAYy6ms-10" vertex="1"><mxGeometry y="30" width="140" height="20" as="geometry"/></mxCell><mxCell id="eYjtONqWW8NmpuAYy6ms-15" value="" style="line;strokeWidth=1;fillColor=none;align=left;verticalAlign=middle;spacingTop=-1;spacingLeft=3;spacingRight=3;rotatable=0;labelPosition=right;points=[];portConstraint=eastwest;" parent="eYjtONqWW8NmpuAYy6ms-10" vertex="1"><mxGeometry y="50" width="140" height="8" as="geometry"/></mxCell><mxCell id="eYjtONqWW8NmpuAYy6ms-17" value="listen()" style="text;html=1;strokeColor=none;fillColor=none;align=left;verticalAlign=middle;spacingLeft=4;spacingRight=4;overflow=hidden;rotatable=0;points=[[0,0.5],[1,0.5]];portConstraint=eastwest;strokeWidth=1;" parent="eYjtONqWW8NmpuAYy6ms-10" vertex="1"><mxGeometry y="58" width="140" height="20" as="geometry"/></mxCell><mxCell id="eYjtONqWW8NmpuAYy6ms-18" value="read()" style="text;html=1;strokeColor=none;fillColor=none;align=left;verticalAlign=middle;spacingLeft=4;spacingRight=4;overflow=hidden;rotatable=0;points=[[0,0.5],[1,0.5]];portConstraint=eastwest;strokeWidth=1;" parent="eYjtONqWW8NmpuAYy6ms-10" vertex="1"><mxGeometry y="78" width="140" height="20" as="geometry"/></mxCell><mxCell id="eYjtONqWW8NmpuAYy6ms-19" value="close()" style="text;html=1;strokeColor=none;fillColor=none;align=left;verticalAlign=middle;spacingLeft=4;spacingRight=4;overflow=hidden;rotatable=0;points=[[0,0.5],[1,0.5]];portConstraint=eastwest;strokeWidth=1;" parent="eYjtONqWW8NmpuAYy6ms-10" vertex="1"><mxGeometry y="98" width="140" height="20" as="geometry"/></mxCell><mxCell id="eYjtONqWW8NmpuAYy6ms-21" value="connect()" style="text;html=1;strokeColor=none;fillColor=none;align=left;verticalAlign=middle;spacingLeft=4;spacingRight=4;overflow=hidden;rotatable=0;points=[[0,0.5],[1,0.5]];portConstraint=eastwest;strokeWidth=1;" parent="eYjtONqWW8NmpuAYy6ms-10" vertex="1"><mxGeometry y="118" width="140" height="20" as="geometry"/></mxCell><mxCell id="eYjtONqWW8NmpuAYy6ms-20" value="accept()" style="text;html=1;strokeColor=none;fillColor=none;align=left;verticalAlign=middle;spacingLeft=4;spacingRight=4;overflow=hidden;rotatable=0;points=[[0,0.5],[1,0.5]];portConstraint=eastwest;strokeWidth=1;" parent="eYjtONqWW8NmpuAYy6ms-10" vertex="1"><mxGeometry y="138" width="140" height="20" as="geometry"/></mxCell><mxCell id="S-D1iu6NnvnevHChGyWz-10" value="&amp;lt;&amp;lt;enumeration&amp;gt;&amp;gt;&lt;br&gt;State" style="swimlane;fontStyle=0;childLayout=stackLayout;horizontal=1;startSize=30;horizontalStack=0;resizeParent=1;resizeParentMax=0;resizeLast=0;collapsible=1;marginBottom=0;whiteSpace=wrap;html=1;strokeWidth=1;" parent="1" vertex="1"><mxGeometry x="470" y="134" width="140" height="150" as="geometry"/></mxCell><mxCell id="S-D1iu6NnvnevHChGyWz-11" value="INITIAL" style="text;strokeColor=none;fillColor=none;align=left;verticalAlign=middle;spacingLeft=4;spacingRight=4;overflow=hidden;points=[[0,0.5],[1,0.5]];portConstraint=eastwest;rotatable=0;whiteSpace=wrap;html=1;strokeWidth=1;" parent="S-D1iu6NnvnevHChGyWz-10" vertex="1"><mxGeometry y="30" width="140" height="30" as="geometry"/></mxCell><mxCell id="S-D1iu6NnvnevHChGyWz-12" value="LISTEN" style="text;strokeColor=none;fillColor=none;align=left;verticalAlign=middle;spacingLeft=4;spacingRight=4;overflow=hidden;points=[[0,0.5],[1,0.5]];portConstraint=eastwest;rotatable=0;whiteSpace=wrap;html=1;strokeWidth=1;" parent="S-D1iu6NnvnevHChGyWz-10" vertex="1"><mxGeometry y="60" width="140" height="30" as="geometry"/></mxCell><mxCell id="S-D1iu6NnvnevHChGyWz-13" value="CONNECTED" style="text;strokeColor=none;fillColor=none;align=left;verticalAlign=middle;spacingLeft=4;spacingRight=4;overflow=hidden;points=[[0,0.5],[1,0.5]];portConstraint=eastwest;rotatable=0;whiteSpace=wrap;html=1;strokeWidth=1;" parent="S-D1iu6NnvnevHChGyWz-10" vertex="1"><mxGeometry y="90" width="140" height="30" as="geometry"/></mxCell><mxCell id="S-D1iu6NnvnevHChGyWz-14" value="CLOSE" style="text;strokeColor=none;fillColor=none;align=left;verticalAlign=middle;spacingLeft=4;spacingRight=4;overflow=hidden;points=[[0,0.5],[1,0.5]];portConstraint=eastwest;rotatable=0;whiteSpace=wrap;html=1;strokeWidth=1;" parent="S-D1iu6NnvnevHChGyWz-10" vertex="1"><mxGeometry y="120" width="140" height="30" as="geometry"/></mxCell></root></mxGraphModel></diagram><diagram id="InE8tOcKh1V7Pa8ussbo" name="Q4"><mxGraphModel dx="842" dy="723" grid="1" gridSize="10" guides="1" tooltips="1" connect="1" arrows="1" fold="1" page="1" pageScale="1" pageWidth="850" pageHeight="1100" math="0" shadow="0"><root><mxCell id="0"/><mxCell id="1" parent="0"/><mxCell id="qsO_-ykpceM_1O648vZw-1" value="EtatSocket" style="swimlane;fontStyle=0;align=center;verticalAlign=top;childLayout=stackLayout;horizontal=1;startSize=30;horizontalStack=0;resizeParent=1;resizeParentMax=0;resizeLast=0;collapsible=0;marginBottom=0;html=1;strokeWidth=1;" parent="1" vertex="1"><mxGeometry x="350" y="140" width="140" height="38" as="geometry"/></mxCell><mxCell id="qsO_-ykpceM_1O648vZw-6" value="" style="line;strokeWidth=1;fillColor=none;align=left;verticalAlign=middle;spacingTop=-1;spacingLeft=3;spacingRight=3;rotatable=0;labelPosition=right;points=[];portConstraint=eastwest;" parent="qsO_-ykpceM_1O648vZw-1" vertex="1"><mxGeometry y="30" width="140" height="8" as="geometry"/></mxCell><mxCell id="qsO_-ykpceM_1O648vZw-17" value="Socket" style="swimlane;fontStyle=0;align=center;verticalAlign=top;childLayout=stackLayout;horizontal=1;startSize=30;horizontalStack=0;resizeParent=1;resizeParentMax=0;resizeLast=0;collapsible=0;marginBottom=0;html=1;strokeWidth=1;" parent="1" vertex="1"><mxGeometry x="110" y="140" width="140" height="38" as="geometry"/></mxCell><mxCell id="qsO_-ykpceM_1O648vZw-22" value="" style="line;strokeWidth=1;fillColor=none;align=left;verticalAlign=middle;spacingTop=-1;spacingLeft=3;spacingRight=3;rotatable=0;labelPosition=right;points=[];portConstraint=eastwest;" parent="qsO_-ykpceM_1O648vZw-17" vertex="1"><mxGeometry y="30" width="140" height="8" as="geometry"/></mxCell><mxCell id="qsO_-ykpceM_1O648vZw-26" value="" style="endArrow=none;startArrow=diamondThin;endFill=0;startFill=1;html=1;verticalAlign=bottom;labelBackgroundColor=none;strokeWidth=1;startSize=20;endSize=8;exitX=1;exitY=0.5;exitDx=0;exitDy=0;entryX=0;entryY=0.5;entryDx=0;entryDy=0;" parent="1" source="qsO_-ykpceM_1O648vZw-17" target="qsO_-ykpceM_1O648vZw-1" edge="1"><mxGeometry width="160" relative="1" as="geometry"><mxPoint x="240" y="230" as="sourcePoint"/><mxPoint x="400" y="230" as="targetPoint"/></mxGeometry></mxCell><mxCell id="oKJQH64gpEmTXzBhj9dP-12" style="edgeStyle=none;html=1;entryX=0.25;entryY=1;entryDx=0;entryDy=0;endArrow=block;endFill=0;endSize=20;" parent="1" source="oKJQH64gpEmTXzBhj9dP-1" target="qsO_-ykpceM_1O648vZw-1" edge="1"><mxGeometry relative="1" as="geometry"/></mxCell><mxCell id="oKJQH64gpEmTXzBhj9dP-1" value="Initial" style="swimlane;fontStyle=0;align=center;verticalAlign=top;childLayout=stackLayout;horizontal=1;startSize=30;horizontalStack=0;resizeParent=1;resizeParentMax=0;resizeLast=0;collapsible=0;marginBottom=0;html=1;strokeWidth=1;" parent="1" vertex="1"><mxGeometry x="150" y="300" width="140" height="38" as="geometry"/></mxCell><mxCell id="oKJQH64gpEmTXzBhj9dP-2" value="" style="line;strokeWidth=1;fillColor=none;align=left;verticalAlign=middle;spacingTop=-1;spacingLeft=3;spacingRight=3;rotatable=0;labelPosition=right;points=[];portConstraint=eastwest;" parent="oKJQH64gpEmTXzBhj9dP-1" vertex="1"><mxGeometry y="30" width="140" height="8" as="geometry"/></mxCell><mxCell id="oKJQH64gpEmTXzBhj9dP-13" style="edgeStyle=none;html=1;entryX=0.5;entryY=1;entryDx=0;entryDy=0;endArrow=block;endFill=0;endSize=20;" parent="1" source="oKJQH64gpEmTXzBhj9dP-3" target="qsO_-ykpceM_1O648vZw-1" edge="1"><mxGeometry relative="1" as="geometry"/></mxCell><mxCell id="oKJQH64gpEmTXzBhj9dP-3" value="Ecoute" style="swimlane;fontStyle=0;align=center;verticalAlign=top;childLayout=stackLayout;horizontal=1;startSize=30;horizontalStack=0;resizeParent=1;resizeParentMax=0;resizeLast=0;collapsible=0;marginBottom=0;html=1;strokeWidth=1;" parent="1" vertex="1"><mxGeometry x="320" y="300" width="140" height="38" as="geometry"/></mxCell><mxCell id="oKJQH64gpEmTXzBhj9dP-4" value="" style="line;strokeWidth=1;fillColor=none;align=left;verticalAlign=middle;spacingTop=-1;spacingLeft=3;spacingRight=3;rotatable=0;labelPosition=right;points=[];portConstraint=eastwest;" parent="oKJQH64gpEmTXzBhj9dP-3" vertex="1"><mxGeometry y="30" width="140" height="8" as="geometry"/></mxCell><mxCell id="oKJQH64gpEmTXzBhj9dP-14" style="edgeStyle=none;html=1;entryX=0.75;entryY=1;entryDx=0;entryDy=0;endSize=20;endArrow=block;endFill=0;" parent="1" source="oKJQH64gpEmTXzBhj9dP-5" target="qsO_-ykpceM_1O648vZw-1" edge="1"><mxGeometry relative="1" as="geometry"/></mxCell><mxCell id="oKJQH64gpEmTXzBhj9dP-5" value="Connectee" style="swimlane;fontStyle=0;align=center;verticalAlign=top;childLayout=stackLayout;horizontal=1;startSize=30;horizontalStack=0;resizeParent=1;resizeParentMax=0;resizeLast=0;collapsible=0;marginBottom=0;html=1;strokeWidth=1;" parent="1" vertex="1"><mxGeometry x="480" y="300" width="140" height="38" as="geometry"/></mxCell><mxCell id="oKJQH64gpEmTXzBhj9dP-6" value="" style="line;strokeWidth=1;fillColor=none;align=left;verticalAlign=middle;spacingTop=-1;spacingLeft=3;spacingRight=3;rotatable=0;labelPosition=right;points=[];portConstraint=eastwest;" parent="oKJQH64gpEmTXzBhj9dP-5" vertex="1"><mxGeometry y="30" width="140" height="8" as="geometry"/></mxCell><mxCell id="oKJQH64gpEmTXzBhj9dP-15" style="edgeStyle=none;html=1;entryX=1;entryY=1;entryDx=0;entryDy=0;endArrow=block;endFill=0;endSize=20;" parent="1" source="oKJQH64gpEmTXzBhj9dP-7" target="qsO_-ykpceM_1O648vZw-1" edge="1"><mxGeometry relative="1" as="geometry"/></mxCell><mxCell id="oKJQH64gpEmTXzBhj9dP-7" value="Fermee" style="swimlane;fontStyle=0;align=center;verticalAlign=top;childLayout=stackLayout;horizontal=1;startSize=30;horizontalStack=0;resizeParent=1;resizeParentMax=0;resizeLast=0;collapsible=0;marginBottom=0;html=1;strokeWidth=1;" parent="1" vertex="1"><mxGeometry x="650" y="300" width="140" height="38" as="geometry"/></mxCell><mxCell id="oKJQH64gpEmTXzBhj9dP-8" value="" style="line;strokeWidth=1;fillColor=none;align=left;verticalAlign=middle;spacingTop=-1;spacingLeft=3;spacingRight=3;rotatable=0;labelPosition=right;points=[];portConstraint=eastwest;" parent="oKJQH64gpEmTXzBhj9dP-7" vertex="1"><mxGeometry y="30" width="140" height="8" as="geometry"/></mxCell></root></mxGraphModel></diagram></mxfile>